<?xml version="1.0" standalone="no"?>
<!DOCTYPE svg PUBLIC "-//W3C//DTD SVG 20010904//EN"
 "http://www.w3.org/TR/2001/REC-SVG-20010904/DTD/svg10.dtd">
<svg version="1.0" xmlns="http://www.w3.org/2000/svg"
 width="500.000000pt" height="500.000000pt" viewBox="0 0 500.000000 500.000000"
 preserveAspectRatio="xMidYMid meet">
<metadata>
Created by potrace 1.14, written by Peter Selinger 2001-2017
</metadata>
<g transform="translate(0.000000,500.000000) scale(0.100000,-0.100000)"
fill="#000000" stroke="none">
<path d="M2358 4612 c-51 -13 -99 -25 -105 -25 -7 0 -13 -5 -13 -10 0 -6 -3
-8 -6 -4 -8 8 -144 -55 -199 -93 -25 -17 -45 -28 -45 -25 0 14 -209 -204 -246
-255 -21 -30 -42 -58 -46 -61 -21 -15 -136 -271 -130 -291 1 -5 -2 -8 -6 -8
-5 0 -9 -6 -9 -12 0 -7 -6 -33 -13 -58 -7 -25 -14 -56 -15 -70 -4 -35 -15
-110 -21 -140 -2 -14 -7 -45 -10 -70 -3 -25 -7 -58 -10 -75 -8 -47 -11 -316
-4 -320 3 -2 7 -25 9 -52 1 -26 6 -64 11 -83 5 -19 11 -55 14 -80 3 -25 7 -56
10 -70 6 -30 15 -171 21 -340 6 -163 13 -314 16 -326 1 -5 1 -11 0 -14 -2 -3
-4 -25 -7 -50 -2 -25 -12 -75 -23 -112 -11 -38 -17 -68 -14 -68 3 0 0 -6 -6
-14 -6 -8 -11 -18 -9 -22 2 -8 -12 -110 -17 -124 -1 -3 -16 -35 -34 -73 -55
-118 -73 -256 -41 -317 15 -28 13 -34 -18 -48 -43 -18 -114 -83 -108 -97 6
-16 -20 -40 -54 -50 -14 -4 -55 -23 -92 -41 -38 -19 -71 -35 -75 -35 -13 -2
-67 -42 -85 -64 -21 -25 -91 -164 -103 -205 -7 -27 -15 -76 -21 -130 -3 -36
-8 -67 -9 -70 -2 -3 -6 -46 -10 -95 -3 -50 -8 -103 -12 -120 -8 -42 -15 -95
-16 -132 -1 -18 -4 -33 -7 -33 -3 0 -6 -30 -8 -68 -2 -37 -4 -88 -6 -114 l-3
-48 2109 0 2108 0 0 779 0 779 -35 21 c-19 11 -35 28 -36 38 0 10 -2 27 -5 38
-2 11 -6 43 -9 70 -6 50 -45 119 -90 157 -33 28 -120 57 -192 64 -139 12 -182
20 -258 45 -89 31 -179 18 -294 -40 -43 -23 -64 -21 -54 4 3 8 1 15 -4 15 -5
0 -9 10 -10 21 -1 12 -9 29 -17 38 -9 10 -16 21 -16 26 0 11 -32 34 -48 35
-16 0 -37 19 -44 40 -3 8 10 42 28 76 39 69 42 106 14 149 -13 20 -16 33 -9
41 20 25 14 131 -12 186 -13 29 -26 55 -29 58 -5 5 -26 43 -61 109 -10 18 -25
41 -34 51 -8 9 -12 20 -9 23 4 4 -1 9 -10 13 -9 3 -16 11 -16 16 0 5 -9 22
-19 37 -20 28 -20 35 -6 126 5 28 9 61 11 75 1 14 3 25 4 25 8 0 14 324 6 360
-2 11 -5 20 -6 20 -1 0 -3 14 -5 30 -2 17 -7 41 -11 55 -4 14 -8 32 -10 40 -5
29 -26 95 -35 112 -5 10 -9 22 -9 28 0 24 -87 190 -111 210 -3 3 -25 34 -49
70 -24 36 -47 67 -52 68 -4 2 -8 10 -8 17 0 7 -4 15 -8 17 -5 2 -23 26 -42 53
-40 59 -236 255 -255 255 -7 0 -15 3 -17 8 -6 13 -183 103 -238 120 -50 16
-83 22 -200 37 -14 1 -45 6 -70 10 -99 16 -168 12 -262 -13z"/>
</g>
</svg>
